<?xml version="1.0" encoding="iso-8859-1"?>
<!-- Generator: Adobe Illustrator 19.0.0, SVG Export Plug-In . SVG Version: 6.00 Build 0)  -->
<svg version="1.1" id="Layer_1" xmlns="http://www.w3.org/2000/svg" xmlns:xlink="http://www.w3.org/1999/xlink" x="0px" y="0px"
	 viewBox="0 0 496 496" style="enable-background:new 0 0 496 496;" xml:space="preserve">
<g>
	<g>
		<g>
			<circle cx="181.44" cy="188" r="12"/>
			<circle cx="285.44" cy="188" r="12"/>
			<path d="M297.44,232h-16c0,26.472-21.528,48-48,48s-48-21.528-48-48h-16c0,35.288,28.712,64,64,64
				C268.728,296,297.44,267.288,297.44,232z"/>
			<path d="M375.272,354.944c9.152,6.12,19.52,13.056,34.168,13.056c44.296,0,56-47.096,56-72l-0.016-26.128L450.8,291.544
				C450.656,291.752,436.76,312,417.44,312c-8.16,0-12.176-3.488-18.264-8.76c-7.848-6.784-17.6-15.24-37.736-15.24
				c-17.584,0-30.856,6.36-39.936,12.968c10.32-13.152,17.808-28.616,21.424-45.528c19.44-2.704,34.512-19.264,34.512-39.44v-72
				c0-79.4-64.6-144-144-144s-144,64.6-144,144v72c0,20.176,15.072,36.736,34.512,39.448c6.704,31.328,26.568,57.776,53.488,73.4
				v8.288l-41.312,6.352c-36.952,5.688-68.048,32.424-79.192,68.12L30.56,496h405.76l-26.376-84.392
				c-10.2-32.648-37.096-57.744-69.888-66.152C355.512,341.784,364.528,347.76,375.272,354.944z M345.104,238.632
				c0.128-2.208,0.336-4.392,0.336-6.632v-38.528c9.288,3.312,16,12.112,16,22.528C361.44,226.536,354.568,235.416,345.104,238.632z
				 M105.44,216c0-10.416,6.712-19.216,16-22.528V232c0,2.24,0.208,4.424,0.336,6.632C112.312,235.416,105.44,226.536,105.44,216z
				 M125.104,176.44c-7.344,0.808-14.064,3.52-19.664,7.768V144c0-70.576,57.424-128,128-128s128,57.424,128,128v40.208
				c-4.672-3.536-10.056-6.184-16-7.392V168c0-26.472-21.528-48-48-48h-3.312l-2.344,2.344C267.504,146.624,235.216,160,200.872,160
				h-48.768C140.36,160,130.256,166.712,125.104,176.44z M137.44,232v-41.336c0-8.088,6.576-14.664,14.664-14.664h29.336h19.432
				c37.424,0,72.68-14.128,99.672-39.848C316.736,137.72,329.44,151.4,329.44,168v64c0,52.936-43.064,96-96,96
				C180.504,328,137.44,284.936,137.44,232z M313.44,336c0,4.256-5.608,8-12,8c-6.392,0-12-3.744-12-8c0-4.256,5.608-8,12-8
				C307.832,328,313.44,331.744,313.44,336z M273.44,336.488v6.344C272.064,347,263.656,368,233.44,368
				c-30.208,0-38.6-20.904-40-25.168v-6.344c12.44,4.784,25.896,7.512,40,7.512S261,341.272,273.44,336.488z M170.872,354.336
				l9.328-1.432C186.496,366.336,202.624,384,233.44,384c28.832,0,44.768-15.456,51.856-28.456
				c4.568,2.784,10.12,4.456,16.144,4.456c1.224,0,2.392-0.176,3.584-0.312c-4.304,60.528-57.936,89.264-71.552,95.56
				c-11.704-5.536-54.816-28.864-68.04-75.192c8.56,15.44,21.912,33.84,40.432,43.096l7.16-14.312
				C190.048,397.352,175.712,366.344,170.872,354.336z M394.68,416.376L414.56,480h-62.056l-7.128-56.992l-15.872,1.984L336.376,480
				H130.504l6.872-55.008l-15.872-1.984L114.376,480H52.32l19.872-63.624c9.352-29.896,35.4-52.304,66.368-57.072l7.064-1.088
				c3.88,79.864,81.456,111.856,84.848,113.208l2.968,1.192l2.968-1.184c3.392-1.352,80.968-33.352,84.848-113.216l7.064,1.088
				C359.28,364.072,385.328,386.48,394.68,416.376z M328.984,332.12c-0.808-4.232-2.928-8.048-5.968-11.232
				C328.384,315.04,341.184,304,361.44,304c14.168,0,20.232,5.256,27.256,11.336C395.552,321.272,403.32,328,417.44,328
				c11.48,0,21.256-4.456,28.864-9.784C442.112,333.864,432.312,352,409.44,352c-9.792,0-16.96-4.8-25.272-10.352
				C371.368,333.08,355.784,322.728,328.984,332.12z"/>
			<path d="M235.968,431.584c1.088-0.36,26.808-9.168,44.128-35.152l-13.312-8.872c-14.168,21.264-35.68,28.784-35.896,28.856
				L233.44,424L235.968,431.584z"/>
		</g>
	</g>
</g>
<g>
</g>
<g>
</g>
<g>
</g>
<g>
</g>
<g>
</g>
<g>
</g>
<g>
</g>
<g>
</g>
<g>
</g>
<g>
</g>
<g>
</g>
<g>
</g>
<g>
</g>
<g>
</g>
<g>
</g>
</svg>
