<?xml version="1.0" encoding="utf-8"?>
<!-- Generator: Adobe Illustrator 22.0.0, SVG Export Plug-In . SVG Version: 6.00 Build 0)  -->
<svg version="1.1" id="Layer_1" xmlns="http://www.w3.org/2000/svg" xmlns:xlink="http://www.w3.org/1999/xlink" x="0px" y="0px"
	 viewBox="0 0 103 98.1" style="enable-background:new 0 0 103 98.1;" xml:space="preserve">
<g>
	<circle cx="80.5" cy="90.6" r="7.5"/>
	<ellipse transform="matrix(0.9732 -0.2298 0.2298 0.9732 -20.0721 8.7352)" cx="27.5" cy="90.6" rx="7.5" ry="7.5"/>
	<path d="M98.8,0.2c-2.7-0.4-5.3,1.4-5.7,4.1l-3.3,19.8H5c-1.6,0-3.1,0.8-4.1,2.1c-0.9,1.3-1.2,3-0.6,4.6l15.4,43.8
		c0.7,2,2.6,3.3,4.7,3.3h20.7c0,0,0,0,0,0c0,0,0,0,0,0h45.8c2.5,0,4.5-1.8,4.9-4.2l4.9-30.2l6.2-37.6C103.4,3.2,101.5,0.6,98.8,0.2z
		 M12.1,34.1h41.7L37.9,67.9H24L12.1,34.1z M49,67.9l15.8-33.8h23.4l-1.2,7.7l0,0.2c0,0,0,0,0,0l-4.2,25.9H49z"/>
</g>
</svg>
