<?xml version="1.0" encoding="iso-8859-1"?>
<!-- Generator: Adobe Illustrator 18.1.1, SVG Export Plug-In . SVG Version: 6.00 Build 0)  -->
<svg version="1.1" id="Layer_1" xmlns="http://www.w3.org/2000/svg" xmlns:xlink="http://www.w3.org/1999/xlink" x="0px" y="0px"
	 viewBox="0 0 47.052 47.052" style="enable-background:new 0 0 47.052 47.052;" xml:space="preserve">
<g>
	<path d="M44.934,33.158L25.385,18.805c0.088-0.144,0.168-0.301,0.238-0.469
		c0.225-0.535,0.783-0.941,1.431-1.413l0.287-0.21c1.425-1.052,2.117-2.509,2.117-4.461c-0.043-2.639-1.866-4.286-4.887-4.405
		l-0.213-0.002c-1.298,0-2.478,0.293-3.505,0.87c-0.828,0.461-1.056,1.597-0.749,2.368l1.86,1.818l0.339-0.42
		c0.575-0.712,1.532-1.153,2.499-1.153c0.761,0,1.356,0.46,1.356,1.048c0,0.894-1.02,1.751-1.92,2.506
		c-0.615,0.517-1.197,1.005-1.493,1.52c-0.33,0.551-0.503,1.192-0.538,2.004L2.117,33.158c-2.199,1.611-2.296,3.063-1.99,3.998
		s1.242,2.051,3.971,2.051h38.853c2.726,0,3.665-1.114,3.972-2.05C47.231,36.223,47.134,34.772,44.934,33.158z M4.455,35.74
		l19.07-14.002L42.597,35.74H4.455z"/>
</g>
</svg>
