<?xml version="1.0" encoding="utf-8"?>
<!-- Generator: Adobe Illustrator 22.0.1, SVG Export Plug-In . SVG Version: 6.00 Build 0)  -->
<svg version="1.1" id="Layer_1" xmlns="http://www.w3.org/2000/svg" xmlns:xlink="http://www.w3.org/1999/xlink" x="0px" y="0px"
	 viewBox="0 0 60 64" style="enable-background:new 0 0 60 64;" xml:space="preserve">
<g>
	<path d="M44,20v4v4h4h4v-4h-4v-4h4v-4v-4V8h-4H36h-4v4v4v4v8h4v-8H44z M36,12h12v4H36V12z"/>
	<path d="M8,12v12v4h4h6v2h4v-2h2h4v-4V12V8h-4H12H8V12z M24,12v12h-2v-2h-4v2h-6V12H24z"/>
	<polygon points="24,52 12,52 12,40 8,40 8,52 8,56 12,56 24,56 28,56 28,52 28,48 24,48 	"/>
	<rect x="12" y="36" width="12" height="4"/>
	<path d="M52,52V40v-4h-4h-4v-4h-4v4h-4h-4v4h-4v4h4v8v4h4h12h4V52z M36,52V40h12v12H36z"/>
	<rect x="40" y="44" width="4" height="4"/>
	<polygon points="20,44 16,44 16,48 20,48 24,48 24,44 	"/>
	<rect x="24" y="32" width="4" height="4"/>
	<rect x="36" y="28" width="4" height="4"/>
	<polygon points="4,4 8,4 8,0 4,0 0,0 0,4 0,8 4,8 	"/>
	<polygon points="56,0 52,0 52,4 56,4 56,8 60,8 60,4 60,0 	"/>
	<polygon points="56,60 52,60 52,64 56,64 60,64 60,60 60,56 56,56 	"/>
	<polygon points="4,56 0,56 0,60 0,64 4,64 8,64 8,60 4,60 	"/>
</g>
</svg>
