<?xml version="1.0" encoding="utf-8"?>
<!-- Generator: Adobe Illustrator 21.1.0, SVG Export Plug-In . SVG Version: 6.00 Build 0)  -->
<svg version="1.1" id="Layer_1" xmlns="http://www.w3.org/2000/svg" xmlns:xlink="http://www.w3.org/1999/xlink" x="0px" y="0px"
	 viewBox="0 0 1548.6 524" style="enable-background:new 0 0 1548.6 524;" xml:space="preserve">
<style type="text/css">
	.st0{fill:url(#SVGID_1_);}
	.st1{fill:url(#SVGID_2_);}
	.st2{fill:url(#SVGID_3_);}
	.st3{fill:url(#SVGID_4_);}
	.st4{fill:url(#SVGID_5_);}
	.st5{fill:url(#SVGID_6_);}
	.st6{fill:url(#SVGID_7_);}
	.st7{fill:url(#SVGID_8_);}
	.st8{fill:url(#SVGID_9_);}
	.st9{fill:url(#SVGID_10_);}
	.st10{fill:url(#SVGID_11_);}
	.st11{fill:url(#SVGID_12_);}
	.st12{fill:url(#SVGID_13_);}
	.st13{fill:url(#SVGID_14_);}
	.st14{fill:url(#SVGID_15_);}
	.st15{fill:url(#SVGID_16_);}
	.st16{fill:url(#SVGID_17_);}
</style>
<g>
	<linearGradient id="SVGID_1_" gradientUnits="userSpaceOnUse" x1="197.5694" y1="-6" x2="197.5694" y2="515.0038">
		<stop  offset="0" style="stop-color:#FFA27A"/>
		<stop  offset="1" style="stop-color:#FF44AE"/>
	</linearGradient>
	<path class="st0" d="M389.3,239.4c-0.3-1-0.5-2.1-0.8-3.1c-0.6-3.9-1.3-7.2-2-9.8c-3.9-15.5-10.4-27.2-17.5-38.3
		c-0.2-0.3-0.3-0.5-0.5-0.8c-0.3-0.4-0.6-0.9-0.9-1.3c-0.2-0.3-0.3-0.5-0.5-0.8c-0.8-1.3-1.6-2.5-2.5-3.8
		c-18.8-28.6-43.1-51.3-72.8-68.1c-29.8-16.7-61.8-25.1-96-25.1c-35.7,0-68.5,8.9-98.5,26.8C67.4,133,43.7,157.3,26.2,188
		C8.7,218.7,0,252,0,288.1c0,36.1,8.7,69.5,26.2,100.2c17.5,30.7,41.2,55.1,71.1,73.1c29.9,18,62.8,27.1,98.5,27.1
		c7.4,0,15.5-0.7,24.3-2c8.7-1.3,14.4-2.3,17-3.1c1.1-0.4,2.6-0.6,4.5-0.6c3.3,0,6.1,1.3,8.4,3.9l24.6,33.5c1.5,2.6,3.9,3.9,7.3,3.9
		c2.2,0,4.1-0.6,5.6-1.7l40.7-27.9c2.6-2.2,3.9-5,3.9-8.4c0-2.2-0.6-4.1-1.7-5.6l-20.9-30.3c26.7-17.9,47.6-40.8,62.5-68.9
		c16.4-30.8,24-63.8,23.1-99.2C394.7,267.6,392.7,253.3,389.3,239.4z M310.7,347.2c-10.6,20.1-25.8,36.2-45.5,48.2
		c-18.8,11.4-39.1,17.6-61.1,18.8c-21.9,1.1-43-2.8-63.3-11.9c-20.3-9-36.8-22.3-49.6-39.8c-0.5-0.7-1-1.3-1.5-1.9
		c-1.5-2.3-3-4.7-4.4-7.1c-11.5-20.1-17.3-41.8-17.3-65.3c0-23.1,5.8-44.5,17.3-64.4c11.5-19.9,27.1-35.7,46.6-47.4
		c19.5-11.7,40.8-17.6,63.9-17.6c21.9,0,42.6,5.2,61.9,15.6c19.3,10.4,35.3,24.7,48,43c2.9,4.2,5.4,8.4,7.8,12.7
		c7.9,16.4,12,33.9,12.4,52.5C326.4,305.4,321.3,327,310.7,347.2z"/>
	<linearGradient id="SVGID_2_" gradientUnits="userSpaceOnUse" x1="546.5522" y1="-6" x2="546.5522" y2="515.0038">
		<stop  offset="0" style="stop-color:#FFA27A"/>
		<stop  offset="1" style="stop-color:#FF44AE"/>
	</linearGradient>
	<path class="st1" d="M613.6,322.1c-0.4-1.5-0.6-3.3-0.6-5.6c0-2.2,1.1-4.1,3.3-5.6c15.2-11.5,27.2-25.9,36-43
		c8.7-17.1,13.1-35.3,13.1-54.7c0-22.7-5.7-43.5-17-62.5c-11.3-19-26.7-34-46-45.2c-19.3-11.2-40.6-16.7-63.6-16.7H423.3
		c-3,0-5.5,1-7.5,3.1c-0.9,0.9-1.6,1.9-2.2,3.1c-0.9,2-0.9,3.8-0.9,4.5c0,3.8-0.1,23.7-0.1,50.9c0,0,0,0,0,0c0,0.2,0,0.5,0,0.7
		c0,5.7,4.6,10.3,10.3,10.5c0,0,0,0,0,0c38.9,0,77.8,0,116.6,0c4.9-0.1,13.2,0.4,22.3,4.6c2,0.9,8.3,4,14.7,10.3
		c10.2,10,15.3,22.3,15.3,36.8c0,14.1-5.1,26.2-15.3,36.3c-10.2,10-22.8,15.1-37.7,15.1H423.3c-3,0-5.5,1-7.5,3.1
		c-2,2.1-3.1,4.6-3.1,7.5v194.7c0,3,1,5.4,3.1,7.3c2,1.9,4.6,2.8,7.5,2.8h43.5c3,0,5.5-0.9,7.5-2.8c2-1.9,3.1-4.3,3.1-7.3V347.2
		c0-4.1,1.2-6.8,3.6-8.1c2.4-1.3,5.9-2,10.3-2h47.4c5.6,0,9.3,0.4,11.2,1.1c1.9,0.8,3.3,2.2,4.5,4.5l58,130.6c1.5,3,3.3,4.8,5.3,5.6
		c2,0.8,5.1,1.1,9.2,1.1h45.8c5.2,0,7.8-2,7.8-6.1c0-2.2-0.8-4.6-2.2-7.3L613.6,322.1z"/>
	<linearGradient id="SVGID_3_" gradientUnits="userSpaceOnUse" x1="1280.397" y1="-6" x2="1280.397" y2="515.0038">
		<stop  offset="0" style="stop-color:#FFA27A"/>
		<stop  offset="1" style="stop-color:#FF44AE"/>
	</linearGradient>
	<path class="st2" d="M1469.9,289c-18.3,0-36.5,0-54.8,0c-4.1,0-7.4,3.2-7.6,7.2c-0.1,2.1-0.3,4.4-0.6,6.8
		c-1.4,12.4-4.4,22.3-6.7,29c-5,14.3-12.6,27.4-22.6,39.3c-11.9,14.9-26.4,26.2-43.5,34c-17.1,7.8-35,11.7-53.6,11.7
		c-30.5,0-58-10-82.6-30.1c-14.5-12.3-25.7-27.1-33.5-44.4c-7.8-17.3-11.7-35.2-11.7-53.9c0-30.9,10-58.6,30.1-83.1
		c10.4-13.4,23.2-24.1,38.5-32.1c15.3-8,31.2-12.7,48-14.2c7.8-0.7,11.7-4.6,11.7-11.7V99c-0.4-3.3-1.6-6.1-3.6-8.4
		c-2.1-2.2-4.6-3.3-7.5-3.3h-1.1c-27.2,1.5-53,8.3-77.6,20.4c-24.6,12.1-46,29.3-64.2,51.6c-15.3,18.2-26.7,38.4-34.3,60.5
		c-7.6,22.1-11.4,44.7-11.4,67.8c0,29.4,6.1,57.8,18.4,85.1c12.3,27.3,29.9,50.9,53,70.6c17.1,15.3,36.6,26.9,58.6,34.9
		c21.9,8,44.6,12,68.1,12c29.8,0,58.3-6.2,85.7-18.7c27.3-12.5,50.1-30.4,68.4-53.8c15.3-18.2,26.8-38.4,34.6-60.5
		c2.5-7.2,6.3-19,8.9-34c1.4-8.5,2.3-16.5,2.6-23.8C1479.8,293.6,1475.4,289,1469.9,289z"/>
	<linearGradient id="SVGID_4_" gradientUnits="userSpaceOnUse" x1="901.7625" y1="-6" x2="901.7626" y2="515.0038">
		<stop  offset="0" style="stop-color:#FFA27A"/>
		<stop  offset="1" style="stop-color:#FF44AE"/>
	</linearGradient>
	<path class="st3" d="M1057.1,280.6c-4.8-3-11.7-3.7-20.6-3.7H917.6c-3,0-5.5,0.4-7.7,2.6c-2.2,2.2-3.2,4.1-3.2,7.1v40.7
		c0,3,1,4.9,3.2,7.2c2.2,2.2,4.7,2.7,7.7,2.7h72c-9.7,28.1-24.7,46.9-45.2,62.3c-20.5,15.4-44.3,23.5-71.4,23.5
		c-23.4,0-45.2-5.7-65.3-17.4c-20.1-11.7-36-27.5-47.7-47.6c-11.7-20.1-17.6-41.8-17.6-65.2c0-23.4,5.9-45.2,17.6-65.3
		c11.7-20.1,27.6-36,47.7-47.7c20.1-11.7,41.8-18.4,65.3-18.4c0.3,0,123.9-0.8,185.4-0.8c24.9-24.1,49.8-48.2,74.8-72.3
		c0,0-266.6,1.9-266.6,2c-28.1,0.2-56.4,9.4-56.4,9.4c-7.9,2.5-22.3,7.7-39.2,17.6c-31.1,18-55.5,42.6-73.6,73.7
		c-18,31.1-27,65-27,101.8c0,36.8,9,70.8,27.1,101.8c18,31.1,42.6,55.6,73.7,73.7c31.1,18,65,27.1,101.8,27.1
		c36.5,0,69.3-9,98.5-27.1c29.2-18,52-42.5,68.4-73.4c16.4-30.9,24.6-64.9,24.6-102.1C1064.4,287.1,1061.9,283.6,1057.1,280.6z"/>
	<linearGradient id="SVGID_5_" gradientUnits="userSpaceOnUse" x1="1476.7396" y1="-6" x2="1476.7397" y2="515.0038">
		<stop  offset="0" style="stop-color:#FFA27A"/>
		<stop  offset="1" style="stop-color:#FF44AE"/>
	</linearGradient>
	<path class="st4" d="M1484.8,80.2v16.1v5.3v10.8h10.5h5.5h16.1V96.3h-16.1V80.2h16.1V64.1V48.1V32h-16.1h-48.2h-16.1v16.1v16.1
		v16.1v32.1h16.1V80.2H1484.8z M1452.7,48.1h48.2v16.1h-48.2V48.1z"/>
	<linearGradient id="SVGID_6_" gradientUnits="userSpaceOnUse" x1="1380.3926" y1="-6" x2="1380.3926" y2="515.0038">
		<stop  offset="0" style="stop-color:#FFA27A"/>
		<stop  offset="1" style="stop-color:#FF44AE"/>
	</linearGradient>
	<path class="st5" d="M1340.2,48.1v48.2v16.1h16.1h24.1v8h16.1v-8h8h16.1V96.3V48.1V32h-16.1h-48.2h-16.1V48.1z M1404.5,48.1v48.2
		h-8v-8h-16.1v8h-24.1V48.1H1404.5z"/>
	<linearGradient id="SVGID_7_" gradientUnits="userSpaceOnUse" x1="1380.3926" y1="-6" x2="1380.3926" y2="515.0038">
		<stop  offset="0" style="stop-color:#FFA27A"/>
		<stop  offset="1" style="stop-color:#FF44AE"/>
	</linearGradient>
	<polygon class="st6" points="1340.2,160.5 1340.2,208.7 1340.2,224.7 1356.3,224.7 1404.5,224.7 1420.5,224.7 1420.5,208.7 
		1420.5,192.6 1404.5,192.6 1404.5,208.7 1356.3,208.7 1356.3,160.5 	"/>
	<linearGradient id="SVGID_8_" gradientUnits="userSpaceOnUse" x1="1380.4553" y1="-6" x2="1380.4553" y2="515.0038">
		<stop  offset="0" style="stop-color:#FFA27A"/>
		<stop  offset="1" style="stop-color:#FF44AE"/>
	</linearGradient>
	<rect x="1356.4" y="144.4" class="st7" width="48" height="16.1"/>
	<linearGradient id="SVGID_9_" gradientUnits="userSpaceOnUse" x1="1468.7107" y1="-6" x2="1468.7108" y2="515.0038">
		<stop  offset="0" style="stop-color:#FFA27A"/>
		<stop  offset="1" style="stop-color:#FF44AE"/>
	</linearGradient>
	<path class="st8" d="M1516.9,208.7v-48.2v-16.1h-16.1h-16.1v-16.1h-16.1v16.1h-16.1h-16.1v16.1h-16.1v16.1h16.1v32.1v16.1h16.1
		h48.2h16.1V208.7z M1452.7,208.7v-48.2h48.2v48.2H1452.7z"/>
	<linearGradient id="SVGID_10_" gradientUnits="userSpaceOnUse" x1="1476.7396" y1="-6" x2="1476.7397" y2="515.0038">
		<stop  offset="0" style="stop-color:#FFA27A"/>
		<stop  offset="1" style="stop-color:#FF44AE"/>
	</linearGradient>
	<rect x="1468.7" y="176.5" class="st9" width="16.1" height="16.1"/>
	<linearGradient id="SVGID_11_" gradientUnits="userSpaceOnUse" x1="1388.4215" y1="-6" x2="1388.4215" y2="515.0038">
		<stop  offset="0" style="stop-color:#FFA27A"/>
		<stop  offset="1" style="stop-color:#FF44AE"/>
	</linearGradient>
	<polygon class="st10" points="1391.9,176.5 1388.4,176.5 1372.4,176.5 1372.4,192.6 1388.4,192.6 1391.9,192.6 1404.5,192.6 
		1404.5,176.5 	"/>
	<linearGradient id="SVGID_12_" gradientUnits="userSpaceOnUse" x1="1412.5083" y1="-6" x2="1412.5083" y2="515.0038">
		<stop  offset="0" style="stop-color:#FFA27A"/>
		<stop  offset="1" style="stop-color:#FF44AE"/>
	</linearGradient>
	<rect x="1404.5" y="128.4" class="st11" width="16.1" height="16.1"/>
	<linearGradient id="SVGID_13_" gradientUnits="userSpaceOnUse" x1="1460.6818" y1="-6" x2="1460.6819" y2="515.0038">
		<stop  offset="0" style="stop-color:#FFA27A"/>
		<stop  offset="1" style="stop-color:#FF44AE"/>
	</linearGradient>
	<rect x="1452.7" y="112.3" class="st12" width="16.1" height="16.1"/>
	<linearGradient id="SVGID_14_" gradientUnits="userSpaceOnUse" x1="1324.1902" y1="-6" x2="1324.1902" y2="515.0038">
		<stop  offset="0" style="stop-color:#FFA27A"/>
		<stop  offset="1" style="stop-color:#FF44AE"/>
	</linearGradient>
	<polygon class="st13" points="1324.2,16 1340.2,16 1340.2,-0.1 1324.2,-0.1 1308.1,-0.1 1308.1,16 1308.1,32 1324.2,32 	"/>
	<linearGradient id="SVGID_15_" gradientUnits="userSpaceOnUse" x1="1532.9421" y1="-6" x2="1532.9421" y2="515.0038">
		<stop  offset="0" style="stop-color:#FFA27A"/>
		<stop  offset="1" style="stop-color:#FF44AE"/>
	</linearGradient>
	<polygon class="st14" points="1532.9,-0.1 1516.9,-0.1 1516.9,16 1532.9,16 1532.9,32 1549,32 1549,16 1549,-0.1 	"/>
	<linearGradient id="SVGID_16_" gradientUnits="userSpaceOnUse" x1="1532.9421" y1="-6" x2="1532.9421" y2="515.0038">
		<stop  offset="0" style="stop-color:#FFA27A"/>
		<stop  offset="1" style="stop-color:#FF44AE"/>
	</linearGradient>
	<polygon class="st15" points="1532.9,240.8 1516.9,240.8 1516.9,256.8 1532.9,256.8 1549,256.8 1549,240.8 1549,224.7 
		1532.9,224.7 	"/>
	<linearGradient id="SVGID_17_" gradientUnits="userSpaceOnUse" x1="1324.1902" y1="-6" x2="1324.1902" y2="515.0038">
		<stop  offset="0" style="stop-color:#FFA27A"/>
		<stop  offset="1" style="stop-color:#FF44AE"/>
	</linearGradient>
	<polygon class="st16" points="1340.2,256.8 1340.2,240.8 1324.2,240.8 1324.2,224.7 1308.1,224.7 1308.1,240.8 1308.1,256.8 
		1324.2,256.8 	"/>
</g>
</svg>
