<?xml version="1.0" encoding="iso-8859-1"?>
<!-- Generator: Adobe Illustrator 19.0.0, SVG Export Plug-In . SVG Version: 6.00 Build 0)  -->
<svg version="1.1" id="Layer_1" xmlns="http://www.w3.org/2000/svg" xmlns:xlink="http://www.w3.org/1999/xlink" x="0px" y="0px"
	 viewBox="0 0 496 496" style="enable-background:new 0 0 496 496;" xml:space="preserve">
<g>
	<g>
		<g>
			<path d="M150.696,343.488c-36.96,5.688-68.048,32.424-79.2,68.112L45.12,496h405.76l-26.376-84.392
				c-11.152-35.688-42.24-62.424-79.2-68.112L304,337.136v-8.184c4.64-2.68,9.056-5.744,13.288-9.088
				c0.904,0.032,1.8,0.136,2.712,0.136c37,0,52.736-35.768,55.888-54.68c0.568-3.432-1.136-6.84-4.232-8.432
				c-3.096-1.6-6.864-1.008-9.32,1.456c-0.056,0.056-2.688,2.544-7.128,5.368c0.816-2.728,1.568-5.472,2.16-8.256
				C376.872,252.8,392,236.208,392,216V112c0-33.64-26.088-61.304-59.096-63.816C316.088,18.344,284.88,0,250.336,0H248
				c-43.456,0-62.616,11.424-78.008,20.608C159.312,26.976,150.88,32,136,32c-24.832,0-34.968-13.928-38.808-22.24
				C94.448,3.832,88.376,0,81.728,0c-4.848,0-9.496,2.056-12.736,5.64c-3.232,3.568-4.808,8.352-4.328,13.136
				C66.52,37.464,74.272,81.432,106,113.768c-1.248,7.512-2,14.984-2,22.232v80c0,20.208,15.128,36.8,34.616,39.456
				c0.592,2.76,1.336,5.48,2.144,8.192c-4.416-2.8-7.056-5.256-7.104-5.304c-2.448-2.456-6.208-3.056-9.32-1.456
				c-3.096,1.592-4.8,5-4.232,8.432C123.264,284.232,139,320,176,320c0.912,0,1.808-0.104,2.712-0.136
				c4.232,3.336,8.648,6.408,13.288,9.088v8.184L150.696,343.488z M136.064,423.008L128.936,480H66.88l19.888-63.624
				c8.28-26.488,29.68-47.032,55.976-54.704L136.064,423.008z M174.112,383.568C169.6,391.688,168,401.288,168,408
				c0,5.152,0.928,12,3.4,18.584L168.432,480h-23.368l6.888-55.136l7.248-66.496l16.128-2.48l-1.536,27.664L174.112,383.568z
				 M184.456,480l1.952-35.176C190.2,446.792,194.664,448,200,448c20.432,0,31.432-9.984,36.208-16h23.576
				c4.776,6.016,15.784,16,36.208,16c5.336,0,9.8-1.208,13.592-3.176l1.96,35.176H184.456z M184,408.024
				c0.008-0.984,0.336-24.024,16-24.024c15.016,0,21.856,7.392,24,10.336v27.312c-2.208,3.024-9.056,10.352-24,10.352
				C184.336,432,184.008,408.96,184,408.024z M294.376,315.984C280.248,323.776,264.288,328,248,328
				c-16.288,0-32.248-4.224-46.376-12.016c20.264-6.264,37.04-19.008,46.376-31.92C257.336,296.976,274.112,309.72,294.376,315.984z
				 M224,232c-21.336,0-31.168,14.192-39.072,25.592C178.552,266.792,174.624,272,168,272c-2.544,0-4.976-0.216-7.312-0.592
				C155.032,258.952,152,245.752,152,232v-89.016c15.712,5.648,34.176,9.016,56,9.016c61.688,0,90.2-17.344,98.776-23.904
				C327.544,129.52,344,146.872,344,168v16v8v40c0,13.76-3.032,26.96-8.696,39.424c-2.32,0.368-4.76,0.576-7.304,0.576
				c-6.624,0-10.552-5.208-16.928-14.408C303.168,246.192,293.336,232,272,232c-10.432,0-18.536,3.112-24,8.848
				C242.536,235.112,234.432,232,224,232z M208,336.52c12.696,4.856,26.24,7.48,40,7.48s27.304-2.624,40-7.48v3.2l-40,26.664
				l-40-26.664V336.52z M240,416v-16.032l16-0.04V416H240z M409.232,416.376L429.12,480h-62.056l-7.112-56.864l-6.696-61.456
				C379.552,369.352,400.96,389.888,409.232,416.376z M336.808,358.376l7.256,66.616L350.936,480h-23.368l-2.968-53.416
				C327.072,420,328,413.144,328,408c0-6.712-1.6-16.312-6.104-24.424l0.32-0.016l-1.536-27.664L336.808,358.376z M296,432
				c-15.016,0-21.856-7.392-24-10.336V394.36c2.208-3.032,9.056-10.36,24-10.36c15.56,0,15.992,22.712,16,24
				C311.992,409.288,311.56,432,296,432z M304.504,353.4l0.888,16.024c-2.8-0.888-5.904-1.424-9.392-1.424
				c-20.432,0-31.432,9.984-36.208,16h-9.368l47.424-31.624L304.504,353.4z M320,304c-37.448,0-64-30.336-64-40
				c0-11.512,4.488-16,16-16c12.96,0,18.968,8.664,25.92,18.704C304.832,276.688,312.672,288,328,288
				c9.496,0,17.864-2.176,24.76-5.024C346.928,293.432,336.856,304,320,304z M359.608,238.648C359.736,236.432,360,234.24,360,232
				v-38.528c9.288,3.312,16,12.112,16,22.528C376,226.56,369.096,235.448,359.608,238.648z M120,216
				c0-10.416,6.712-19.216,16-22.528V232c0,2.24,0.264,4.432,0.392,6.648C126.896,235.448,120,226.56,120,216z M120,184.2V136
				c0-3.176,0.2-6.424,0.48-9.68c4.76,3.504,9.912,6.76,15.52,9.696v40.792C130.056,178.024,124.672,180.664,120,184.2z
				 M80.584,17.192c-0.032-0.312,0.056-0.584,0.264-0.816c0.312-0.344,1.56-0.472,1.824,0.104C87.048,25.96,101.008,48,136,48
				c19.288,0,30.408-6.632,42.176-13.656C192.608,25.744,208.952,16,248,16h2.336c30.048,0,57.064,16.696,70.504,43.576L323.056,64
				H328c26.472,0,48,21.528,48,48v72.208c-4.672-3.536-10.056-6.184-16-7.392V168c0-30.88-25.12-56-56-56l-3.272,0.064l-2.32,2.216
				C298.176,114.496,274.904,136,208,136C103.664,136,84.136,52.912,80.584,17.192z M176,304c-16.856,0-26.928-10.576-32.76-21.024
				C150.136,285.824,158.504,288,168,288c15.328,0,23.168-11.312,30.08-21.296C205.032,256.664,211.04,248,224,248
				c11.512,0,16,4.488,16,16C240,273.664,213.448,304,176,304z M198.144,352.376L245.584,384h-9.376
				c-4.776-6.016-15.784-16-36.208-16c-3.488,0-6.592,0.536-9.4,1.424l0.888-16.024L198.144,352.376z"/>
			<circle cx="196" cy="188" r="12"/>
			<circle cx="300" cy="188" r="12"/>
		</g>
	</g>
</g>
</svg>
