<?xml version="1.0" encoding="utf-8"?>
<!-- Generator: Adobe Illustrator 22.0.1, SVG Export Plug-In . SVG Version: 6.00 Build 0)  -->
<svg version="1.1" id="Layer_1" xmlns="http://www.w3.org/2000/svg" xmlns:xlink="http://www.w3.org/1999/xlink" x="0px" y="0px"
	 viewBox="0 0 330 330" style="enable-background:new 0 0 330 330;" xml:space="preserve">
<style type="text/css">
	.st0{fill:#B4C1D6;}
</style>
<g id="XMLID_2_">
	<path id="XMLID_4_" class="st0" d="M325.6,304.4l-63.5-63.5c38.6-29,63.5-64.9,65.2-67.4c3.5-5.1,3.5-11.8,0-17
		C324.4,152.3,254.7,52,165,52c-25.9,0-50.1,8.3-71.5,20.3L25.6,4.4c-5.9-5.9-15.4-5.9-21.2,0s-5.9,15.4,0,21.2l63.5,63.5
		l185.8,185.8l50.7,50.7c2.9,2.9,6.8,4.4,10.6,4.4c3.8,0,7.7-1.5,10.6-4.4C331.5,319.7,331.5,310.3,325.6,304.4z"/>
	<path id="XMLID_5_" class="st0" d="M2.6,156.5c-3.5,5.1-3.5,11.8,0,17C5.6,177.7,75.3,278,165,278c14.7,0,28.8-2.7,42.2-7.2
		L44.8,108.5C19.6,132.1,4,154.6,2.6,156.5z"/>
</g>
</svg>
