<?xml version="1.0" encoding="utf-8"?>
<!-- Generator: Adobe Illustrator 22.0.1, SVG Export Plug-In . SVG Version: 6.00 Build 0)  -->
<svg version="1.1" id="Layer_1"
	 xmlns="http://www.w3.org/2000/svg" xmlns:xlink="http://www.w3.org/1999/xlink" x="0px" y="0px" viewBox="0 0 512 512"
	 style="enable-background:new 0 0 512 512;" xml:space="preserve">
<style type="text/css">
	.st0{fill:#B4C1D6;}
</style>
<g>
	<path class="st0" d="M0,256c0,141.4,114.6,256,256,256c141.4,0,256-114.6,256-256S397.4,0,256,0C114.6,0,0,114.6,0,256z M448,256
		c0,36.6-10.3,70.8-28,100L156,92c29.1-17.8,63.3-28,100-28C362,64,448,150,448,256z M64,256c0-36.6,10.3-70.8,28-100L356,420
		c-29.1,17.8-63.3,28-100,28C150,448,64,362,64,256z"/>
</g>
</svg>
