<?xml version="1.0" encoding="utf-8"?>
<!-- Generator: Adobe Illustrator 22.0.1, SVG Export Plug-In . SVG Version: 6.00 Build 0)  -->
<svg version="1.1" id="Layer_1" xmlns="http://www.w3.org/2000/svg" xmlns:xlink="http://www.w3.org/1999/xlink" x="0px" y="0px"
	 viewBox="0 0 395 395" style="enable-background:new 0 0 395 395;" xml:space="preserve">
<style type="text/css">
	.st0{fill:#FF5E9F;}
</style>
<g>
	<path class="st0" d="M357.5,381L337.9,82.2c-0.4-6.6-5.9-11.7-12.5-11.7h-54.7v-8c0-34.5-28-62.5-62.5-62.5h-21.5
		c-34.5,0-62.5,28-62.5,62.5v8H69.6c-6.6,0-12,5.1-12.5,11.7L37.5,381.7c-0.2,3.4,1,6.8,3.3,9.4c2.4,2.5,5.7,4,9.1,4h295.2
		c0,0,0,0,0,0c6.9,0,12.5-5.6,12.5-12.5C357.6,382,357.6,381.5,357.5,381z M149.3,62.5c0-20.7,16.8-37.5,37.5-37.5h21.5
		c20.7,0,37.5,16.8,37.5,37.5v8h-96.5V62.5z M63.3,370l18-274.5h43v11.2c-8.9,4.6-15,13.8-15,24.5c0,15.2,12.3,27.5,27.5,27.5
		s27.5-12.3,27.5-27.5c0-10.7-6.1-19.9-15-24.5V95.5h96.5v11.2c-8.9,4.6-15,13.8-15,24.5c0,15.2,12.3,27.5,27.5,27.5
		s27.5-12.3,27.5-27.5c0-10.7-6.1-19.9-15-24.5V95.5h43l18,274.5H63.3z"/>
</g>
</svg>
