<?xml version="1.0" encoding="utf-8"?>
<!-- Generator: Adobe Illustrator 22.0.1, SVG Export Plug-In . SVG Version: 6.00 Build 0)  -->
<svg version="1.1" id="Layer_1" xmlns="http://www.w3.org/2000/svg" xmlns:xlink="http://www.w3.org/1999/xlink" x="0px" y="0px"
	 viewBox="0 0 100 100" style="enable-background:new 0 0 100 100;" xml:space="preserve">
<style type="text/css">
	.st0{fill:#FF5E9F;}
</style>
<g>
	<path class="st0" d="M43,19.5c-3.8,0-7.5,0.9-10.9,2.7c-2.4,1.3-3.4,4.3-2.1,6.7s4.3,3.4,6.7,2.1c1.9-1,4-1.5,6.2-1.5
		c6.4,0,11.9,4.5,13.2,10.7c0.5,2.4,2.6,4,4.9,4c0.3,0,0.7,0,1-0.1c2.7-0.6,4.5-3.2,3.9-5.9C63.8,27.4,54.1,19.5,43,19.5z"/>
	<path class="st0" d="M98.5,91.4L76.3,70.1c6-7.4,9.7-16.9,9.7-27.1C86,19.3,66.7,0,43,0S0,19.3,0,43s19.3,43,43,43
		c9.8,0,18.9-3.3,26.1-8.9l22.5,21.5c1,0.9,2.2,1.4,3.5,1.4s2.6-0.5,3.6-1.5C100.6,96.5,100.5,93.3,98.5,91.4z M10,43
		c0-18.2,14.8-33,33-33s33,14.8,33,33S61.2,76,43,76S10,61.2,10,43z"/>
</g>
</svg>
