<?xml version="1.0" encoding="utf-8"?>
<!-- Generator: Adobe Illustrator 22.0.1, SVG Export Plug-In . SVG Version: 6.00 Build 0)  -->
<svg version="1.1" id="Layer_1" xmlns="http://www.w3.org/2000/svg" xmlns:xlink="http://www.w3.org/1999/xlink" x="0px"
	 y="0px" viewBox="0 0 32 33.2" style="enable-background:new 0 0 32 33.2;" xml:space="preserve">
<style type="text/css">
	.st0{fill:#FF5E9F;}
</style>
<path class="st0" d="M28.5,9.5c-0.1-0.8-0.7-1.4-1.5-1.4h-4.5V6.6c0-3.6-2.9-6.5-6.5-6.5S9.5,3,9.5,6.6v1.5H5
	c-0.8,0-1.4,0.6-1.5,1.4l-2,22c0,0.4,0.1,0.8,0.4,1.1s0.7,0.5,1.1,0.5h26c0.4,0,0.8-0.2,1.1-0.5c0.3-0.3,0.4-0.7,0.4-1.1L28.5,9.5z
	 M9.5,11.1v1.5c-0.6,0.5-1,1.2-1,2c0,1.4,1.1,2.5,2.5,2.5s2.5-1.1,2.5-2.5c0-0.8-0.4-1.5-1-2v-1.5h7v1.5c-0.6,0.5-1,1.2-1,2
	c0,1.4,1.1,2.5,2.5,2.5s2.5-1.1,2.5-2.5c0-0.8-0.4-1.5-1-2v-1.5h3.1l1.7,19H4.6l1.7-19H9.5z M19.5,8.1h-7V6.6c0-1.9,1.6-3.5,3.5-3.5
	s3.5,1.6,3.5,3.5V8.1z"/>
</svg>
