<?xml version="1.0" encoding="utf-8"?>
<!-- Generator: Adobe Illustrator 22.0.1, SVG Export Plug-In . SVG Version: 6.00 Build 0)  -->
<svg version="1.1" id="Layer_1" xmlns="http://www.w3.org/2000/svg" xmlns:xlink="http://www.w3.org/1999/xlink" x="0px" y="0px"
	 viewBox="0 0 100 100" style="enable-background:new 0 0 100 100;" xml:space="preserve">
<style type="text/css">
	.st0{fill:#FF5E9F;}
</style>
<path class="st0" d="M93.7,39.1l-40-37.6c-2.1-2-5.4-2-7.4,0l-40,37.6c-4,3.8-6.3,9-6.3,14.5v41c0,3,2.4,5.4,5.4,5.4h30.4
	c3,0,5.4-2.4,5.4-5.4V70c0-4.8,3.9-8.7,8.7-8.7c2.3,0,4.5,0.9,6.1,2.5c1.6,1.6,2.5,3.8,2.5,6.1v24.5c0,3,2.4,5.4,5.4,5.4h30.4
	c3,0,5.4-2.4,5.4-5.4v-41C100,48.1,97.7,42.8,93.7,39.1z M89.1,89.1H69.6V70c0-5.2-2-10.1-5.7-13.8s-8.6-5.7-13.8-5.7
	c-10.8,0-19.6,8.8-19.6,19.6v19.1H10.9V53.6c0-2.5,1-4.9,2.9-6.6L50,12.9L86.3,47c1.8,1.7,2.9,4.1,2.9,6.6v35.5H89.1z"/>
</svg>
