<?xml version="1.0" encoding="utf-8"?>
<!-- Generator: Adobe Illustrator 22.0.1, SVG Export Plug-In . SVG Version: 6.00 Build 0)  -->
<svg version="1.1" id="Layer_1" xmlns="http://www.w3.org/2000/svg" xmlns:xlink="http://www.w3.org/1999/xlink" x="0px" y="0px"
	 viewBox="0 0 100 100" style="enable-background:new 0 0 100 100;" xml:space="preserve">
<style type="text/css">
	.st0{fill:#B4C1D6;}
</style>
<g>
	<g>
		<g>
			<circle class="st0" cx="50" cy="47" r="7"/>
		</g>
		<g>
			<circle class="st0" cx="70" cy="47" r="7"/>
		</g>
		<g>
			<circle class="st0" cx="30" cy="47" r="7"/>
		</g>
	</g>
	<g>
		<path class="st0" d="M86.9,100C86.8,100,86.8,100,86.9,100c-3.3,0-20-0.5-29.7-8.9c-0.1,0-0.5-0.1-1.2-0.1l0,0H33.1
			C14.8,91,0,76.2,0,57.9V33.1C0,14.8,14.8,0,33.1,0h33.8C85.2,0,100,14.8,100,33.1v24.8c0,8.2-3,16-8.4,22.1c0.9,1.3,2,2.7,3.2,4
			c2.6,2.8,3.3,6.6,1.9,10C95,97.6,91.2,100,86.9,100z M87.5,90.8L87.5,90.8L87.5,90.8z M55.9,81c3.3,0,5.8,0.8,7.7,2.5
			c5.8,5.1,17.2,6.5,23.1,6.5c-2.7-3-4.7-6.1-5.9-8.3c-1.2-2.1-0.7-4.7,1.1-6.3C87.1,71,90,64.6,90,57.9V33.1
			C90,20.4,79.6,10,66.9,10H33.1C20.4,10,10,20.4,10,33.1v24.8C10,70.6,20.4,81,33.1,81H55.9L55.9,81z"/>
	</g>
</g>
</svg>
