<?xml version="1.0" encoding="utf-8"?>
<!-- Generator: Adobe Illustrator 22.0.1, SVG Export Plug-In . SVG Version: 6.00 Build 0)  -->
<svg version="1.1" id="Layer_1"
	 xmlns="http://www.w3.org/2000/svg" xmlns:xlink="http://www.w3.org/1999/xlink" x="0px" y="0px" viewBox="0 0 133.8 134"
	 style="enable-background:new 0 0 133.8 134;" xml:space="preserve">
<style type="text/css">
	.st0{fill:#B4C1D6;}
	.st1{fill:#FFFFFF;}
</style>
<path class="st0" d="M123.9,92.9c-4.1-4.1-10.7-7.5-20.9-12.7c-3-1.5-9-4.5-12.4-6.5c7.8-10.3,12.2-21.7,12.2-31.9
	c0-7.3,0-16.4-4.2-24.9C94.6,9.2,85.9,0,66.9,0S39.2,9.2,35.2,17C31,25.4,31,34.5,31,41.8c0,10.1,4.4,21.5,12.1,31.9
	c-3.4,2-9.5,5.1-12.4,6.6c-10.3,5-16.8,8.4-20.9,12.6c-9.6,9.6-9.9,25.5-9.9,27.3c0,3.7,1.4,7.2,4,9.7c2.6,2.6,6.1,4.1,9.7,4.1
	h106.7c3.8,0,7.2-1.5,9.7-4.1c2.5-2.5,4-6.1,4-9.8V120C133.8,114.7,132.4,101.4,123.9,92.9z"/>
<path class="st1" d="M14,119.5c0.1-1.9,0.7-12,5.8-17.2c2.6-2.6,9.1-6,17.2-10c10.6-5.3,15.4-7.9,18-10.4l7.4-7l-6.5-8
	C49.1,58.4,45.1,49,45.1,41.3c0-6.1,0-13.1,2.8-18.6c3.1-6.1,9.5-9.2,19.1-9.2s16.1,3.1,19.1,9.3c2.8,5.5,2.8,12.4,2.8,18.5
	c0,7.7-4,17.1-10.9,25.6l-6.5,8l7.4,7c2.7,2.6,8.2,5.6,18,10.4c7.8,3.9,14.5,7.3,17.2,10c4.3,4.3,5.7,13,5.8,17.2H14z"/>
</svg>
