<?xml version="1.0" encoding="utf-8"?>
<!-- Generator: Adobe Illustrator 22.0.1, SVG Export Plug-In . SVG Version: 6.00 Build 0)  -->
<svg version="1.1" id="Layer_1"
	 xmlns="http://www.w3.org/2000/svg" xmlns:xlink="http://www.w3.org/1999/xlink" x="0px" y="0px" viewBox="0 0 134.7 134.8"
	 style="enable-background:new 0 0 134.7 134.8;" xml:space="preserve">
<style type="text/css">
	.st0{fill:#FF5E9F;}
</style>
<path class="st0" d="M124.1,93.7c-4.1-4.1-10.7-7.5-20.9-12.7c-3-1.5-9-4.5-12.4-6.5C98.6,64.2,103,52.8,103,42.6
	c0-7.3,0-16.4-4.2-24.9C94.8,10,86.1,0.8,67.1,0.8s-27.7,9.2-31.7,17c-4.2,8.4-4.2,17.5-4.2,24.8c0,10.1,4.4,21.5,12.1,31.9
	c-3.4,2-9.5,5.1-12.4,6.6c-10.3,5-16.8,8.4-20.9,12.6c-9.6,9.6-9.9,25.5-9.9,27.3c0,3.7,1.4,7.2,4,9.7c2.6,2.6,6.1,4.1,9.7,4.1
	h106.7c3.8,0,7.2-1.5,9.7-4.1c2.5-2.5,4-6.1,4-9.8v-0.1C134,115.5,132.6,102.2,124.1,93.7z M14.2,120.8c0.1-1.9,0.7-12,5.8-17.2
	c2.6-2.6,9.1-6,17.2-10c10.6-5.3,15.4-7.9,18-10.4l7.4-7l-6.5-8c-6.8-8.5-10.8-17.9-10.8-25.6c0-6.1,0-13.1,2.8-18.6
	c3.1-6.1,9.5-9.2,19.1-9.2s16.1,3.1,19.1,9.3c2.8,5.5,2.8,12.4,2.8,18.5c0,7.7-4,17.1-10.9,25.6l-6.5,8l7.4,7
	c2.7,2.6,8.2,5.6,18,10.4c7.8,3.9,14.5,7.3,17.2,10c4.3,4.3,5.7,13,5.8,17.2H14.2z"/>
</svg>
