<?xml version="1.0" encoding="utf-8"?>
<!-- Generator: Adobe Illustrator 22.0.1, SVG Export Plug-In . SVG Version: 6.00 Build 0)  -->
<svg version="1.1" id="Layer_1" xmlns="http://www.w3.org/2000/svg" xmlns:xlink="http://www.w3.org/1999/xlink" x="0px" y="0px"
	 viewBox="0 0 68.4 68.4" style="enable-background:new 0 0 68.4 68.4;" xml:space="preserve">
<style type="text/css">
	.st0{fill:#B4C1D6;}
</style>
<g>
	<path class="st0" d="M59.6,45.2L58.2,33c-0.1-10.4-6.9-19.5-16.6-22.6v-3c0-4-3.3-7.3-7.3-7.3S27,3.4,27,7.4v3
		C17.2,13.5,10.3,22.6,10.3,33L8.9,45.2c-1.9,1.5-3,3.8-3,6.3V52c0,6,5.8,6,8,6H22c0.9,6,5.9,10.5,11.8,10.5S44.7,63.9,45.6,58h9
		c2.2,0,8,0,8-6v-0.5C62.6,49,61.5,46.7,59.6,45.2z M33.7,62.4c-2.3,0-4.3-1.4-5.3-3.5h10.7C38.1,61,36,62.4,33.7,62.4z M56.6,51.8
		c-0.4,0.1-1.1,0.1-2,0.1H13.8c-0.9,0-1.6,0-2-0.1v-0.3c0-0.9,0.6-1.5,1.2-1.8l1.5-0.7l1.8-15.4v-0.3c0-8.5,6-15.8,14.3-17.6
		l2.4-0.5V7.3C33,6.6,33.6,6,34.3,6s1.3,0.6,1.3,1.3v7.8l2.4,0.5c8.3,1.7,14.3,9.1,14.3,17.6L54,48.9l1.5,0.7
		c0.6,0.3,1.2,0.9,1.2,1.8L56.6,51.8L56.6,51.8z"/>
</g>
</svg>
