<?xml version="1.0" encoding="iso-8859-1"?>

<!-- Generator: Adobe Illustrator 22.0.1, SVG Export Plug-In . SVG Version: 6.00 Build 0)  -->
<svg version="1.1" id="Layer_1" xmlns="http://www.w3.org/2000/svg" xmlns:xlink="http://www.w3.org/1999/xlink" x="0px" y="0px"
	 viewBox="0 0 435 496.8" style="enable-background:new 0 0 435 496.8;" xml:space="preserve">
<g>
	<g>
		<path class="st0" d="M437,273.8c0,14,0,28,0,42c-1.2,12.4-4.8,24-12.3,34.2c-16.3,22.4-44.9,28.4-68.7,14.4
			c-4.2-2.5-8.2-5.1-12.2-7.8c-6.9-4.5-14.3-7.9-22.6-8.8c-1.1-0.1-2.3-0.1-3.1-0.9c24.3,7.3,42.8,22.4,56.3,43.8
			c6.7,10.6,10.2,22.4,13.9,34.1c6.4,20.5,12.8,41,19.2,61.5c1.1,3.7,3.5,7.4,1.5,11.5c-135.3,0-270.7,0-406,0
			c-0.6-7.3,2.1-14,4.2-20.7c6.5-20.8,12.8-41.7,19.6-62.4c12.2-37.3,37.4-61.1,75.7-70.3c13.1-3.1,26.6-4.1,39.9-6.5
			c2.1-0.4,4.6,0.1,5.2-2.8c0.6-2.8-1.5-4.2-3.4-5.5c-6.3-4.3-12.6-8.8-18-14.2c-14.3-14.3-24.3-31.2-29.9-50.6
			c-1.1-3.7-2.9-5.9-6.7-7c-18.6-5.4-30-23.5-29.6-41.6c0.6-24.7-0.2-49.3,0.2-74c0.6-33.5,11.9-63.2,33.2-89
			c19.9-24.1,45-40.2,75.2-48.5c7.4-2,15.1-1.3,22.6-2.7c0.7,0,1.3,0,2,0c2,0.8,4,0.8,6,0c4,0,8,0,12,0c2.3,0.8,4.7,0.8,7,0
			c1,0,2,0,3,0c9,1.5,18.1,1.2,27,4c18.5,5.8,35.3,14.6,50.3,26.9c20.4,16.7,35.3,37.4,44.6,62.1c5.7,15.1,8.9,30.7,9.1,46.8
			c0.3,24.7,0.1,49.3,0.1,74c0,21.1-10.1,35.4-30,42.3c-3.5,1.2-5.4,3.1-6.4,6.8c-3,11.1-7.6,21.5-13.7,30.6
			c19-8.4,38.4-11.4,58.3-1.2c5.1,2.6,9.3,6.4,13.6,10.1c11.1,9.6,22.3,10,34,1.3c6.9-5.1,12.7-11.2,17.2-18.6
			c2.2-3.5,4.5-7,7.2-10.2C433.4,275,434.5,273.2,437,273.8z"/>
		<path class="st1" d="M191,1.8c-6.1,2.2-12.6,2.5-18.9,4c-57.1,13.6-101.7,63-109,120.9c-0.8,6.3-1.2,12.6-1.2,18.9
			c0.1,23.5,0,47,0,70.5c0,20.1,11,34.8,30.2,40.1c3.2,0.9,4.5,2.3,5.4,5.4c7.5,27.8,23.2,49.9,47.3,65.8c1.8,1.2,4,1.9,4.9,4.1
			c1.7,4.6-0.2,7.4-5.2,8.2c-14,2.1-28.1,3.6-41.9,6.8c-36.9,8.6-61.5,31.5-73.4,67.3C20,441.6,11.7,469.8,3,497.8
			c-2.1-0.9-0.9-2.7-0.9-4C2,468.1,2,442.5,2,416.8C2,280.1,2,143.3,1.9,6.6c0-3.8,0.4-5,4.7-5C68.1,1.8,129.5,1.8,191,1.8z"/>
		<path class="st1" d="M437,273.8c-4.5,6.4-8.8,12.9-13.5,19.2c-7.2,9.4-15.5,17.4-27.6,20.1c-7.1,1.6-13.6,0.5-19.3-4.1
			c-2.3-1.9-4.6-3.8-6.9-5.7c-21.5-18.1-44.4-16.6-68.1-5.2c-0.8,0.4-1.5,0.8-2.2,1.2c-0.7,0.4-1.4,0.8-2.3,1.3
			c-0.6-1.8,0.6-2.6,1.2-3.6c7.4-10.8,12.9-22.5,16-35.3c0.8-3.2,2.3-4.5,5.5-5.4c18.9-5.2,30.2-20.1,30.2-39.7
			c0.1-24.5,0.1-49,0-73.5C349.5,74.8,296.8,14,229.1,3.6c-2.7-0.4-5.7-0.1-8.1-1.9c70.7,0,141.3,0,212-0.1c3.4,0,4.1,0.7,4.1,4.1
			C437,95.1,437,184.4,437,273.8z"/>
		<path class="st1" d="M409,497.8c-8.5-27.2-17.1-54.3-25.6-81.5c-10.6-33.9-32.6-56.6-66.4-67.8c-0.6-0.2-1.2-0.5-1.9-0.9
			c5.4-2.6,12-2.1,19.8,1.4c7.3,3.3,13.7,8.1,20.5,12.4c26.5,16.9,60.9,7.4,74.6-25.1c2.8-6.8,4.2-14,7-20.7c0,59.3,0,118.7,0.1,178
			c0,3.4-0.7,4.2-4.1,4.1C425,497.5,417,497.8,409,497.8z"/>
		<path class="st2" d="M218,1.8c-2.3,1.5-4.7,1.4-7,0C213.3,1.8,215.7,1.8,218,1.8z"/>
		<path class="st3" d="M199,1.8c-2,1.3-4,1.5-6,0C195,1.8,197,1.8,199,1.8z"/>
		<path class="st1" d="M77.9,185.8c0.9-26.6-2.7-52.3,5.6-77c16.3-48.5,49.4-79,99.6-88.7C252,6.7,318.3,52.7,331.7,121.5
			c3,15.5,2.2,31.2,2.3,46.8c0,5.4,0,10.9,0,17.1c-5-2.7-9.4-5.2-14.1-6.6c-2.7-0.8-1.9-3.3-1.8-5.1c0.4-9.7-1.3-19-6.2-27.4
			c-9.3-15.7-23.1-23.9-41.4-24.7c-2.7-0.1-4.7,0.8-6.6,2.7c-25.9,25.4-57.1,37.6-93.4,37.4c-14.8-0.1-29.7,0.1-44.5-0.1
			c-11.2-0.1-20,4.5-26.5,13.4c-1.6,2.2-3.3,3.3-6,3.8C88.3,179.9,83.4,182.2,77.9,185.8z"/>
		<path class="st1" d="M149.9,177.8c-7.2,5.4-9.3,10.1-7.3,15.7c1.7,4.8,6.4,8.2,11.5,8.2c5,0,9.7-3.5,11.3-8.4
			c1.9-5.7-0.2-10.3-7.6-15.6c4.7,0,8.6,0,12.5,0c35.1,0.4,66.5-10,94-32.1c0.9-0.7,1.8-1.5,2.7-2.2c7.3-6.6,8.4-6.8,17.1-2.4
			c11.8,6,17.9,15.8,18,28.9c0.2,22.2,0.2,44.3,0,66.5c-0.4,45.9-37.7,86.6-83.3,92.5c-51.5,6.7-102.6-29.4-108.2-86.1
			c-1.7-17.2-0.6-34.6-0.3-52c0.1-7,5.9-12.6,13-12.9C131.9,177.5,140.7,177.8,149.9,177.8z"/>
		<path class="st1" d="M205.7,481.8c-32.3,0-64.6-0.1-97,0.1c-4.6,0-5.8-0.9-5.1-5.9c2.3-15.1,3.8-30.4,5.7-45.5
			c0.3-2.6-0.2-3.7-2.7-4c-3.3-0.4-6.6-0.9-9.9-1.4c-3.5-0.5-3.1,2.5-3.4,4.4c-1.3,9.1-2.3,18.1-3.4,27.2
			c-0.9,7.1-1.9,14.2-2.7,21.3c-0.3,2.9-1.5,3.9-4.4,3.9c-18-0.1-36-0.1-54,0c-2.8,0-4-0.6-3-3.7c7.6-23.3,12.8-47.4,22.8-69.7
			c12.5-27.9,35.3-43.4,65.6-47.8c3-0.4,3.6,0.5,3.9,3.2c2.2,22.9,9.8,43.8,23.9,62.1c16,20.7,36.2,36.2,60,46.9
			c2.2,1,4.4,1.5,6.7,0.4c40.2-18.8,70.1-46.9,81.8-91.2c1.5-5.6,2.5-11.4,2.7-17.2c0.1-3.5,1.4-4.8,5.3-4.1
			c35.2,6,58.3,26,69.4,59.8c6.1,18.7,11.6,37.5,17.6,56.2c1.2,3.9,0.9,5.2-3.6,5.1c-17.2-0.2-34.3-0.3-51.5,0
			c-4.3,0.1-5.9-1.4-6.3-5.4c-1.6-14.5-3.5-29.1-5.2-43.6c-0.2-1.8-0.5-3.6-0.9-5.4c-0.2-0.8-0.4-1.7-1-2.2
			c-1.1-0.9-13.8,1.2-14.5,2.3c-0.7,1.1-0.2,2.2,0,3.4c1.9,15.2,3.5,30.4,5.7,45.5c0.7,5-1,5.4-5.1,5.4
			C270.7,481.7,238.2,481.8,205.7,481.8z"/>
		<path class="st1" d="M140.8,387.8c4.2,5.7,7.5,10.4,11.1,14.9c6.4,7.9,13.8,14.9,22.6,20.2c2.7,1.7,4.3,1.7,5.6-1.6
			c1.3-3.4,4.4-6.7,4.2-9.9c-0.1-3.4-5.1-4.1-7.7-6.3c-14.6-11.9-23.9-27.6-31.3-44.5c-0.6-1.4-2.8-3.7,0-4.5
			c2.5-0.7,5.7-3.1,8.1,0.5c1.3,1.9,2.4,4,3.7,5.9c10.2,14.2,24.5,21.3,41.5,23c17,1.6,32.8-1.8,46.4-12.9c4.2-3.4,7.6-7.4,10.5-12
			c1.5-2.4,3-3.2,5.6-1.7c3.1,1.7,6.5,2.5,10,2.7c6,0.4,6.4,0.7,5.5,6.9c-2,13.7-6.5,26.5-13.7,38.3c-13.2,21.6-32.1,37.1-54.3,48.8
			c-1.5,0.8-3,1.4-4.7,0.5c-28.4-14.9-51.1-35.3-63.3-65.8C140.7,390,140.8,389.7,140.8,387.8z"/>
		<path class="st1" d="M417.6,321.7c-5,27.3-29.1,37.9-48.6,29c-5.8-2.6-11-6.3-16.2-9.9c-14.6-10-30.2-13.5-47.4-8.1
			c-3.1,1-4.7,0.2-5.3-2.9c-0.1-0.5-0.3-0.9-0.5-1.4c-3.6-7.2-3.6-7.3,3.1-12.2c12.2-8.8,25.6-12.4,40.6-9.4
			c7.8,1.6,13.9,6.4,19.5,11.7c15.7,14.8,35.2,13.9,52.1,4.1C415.7,322,416.5,321.2,417.6,321.7z"/>
		<path class="st1" d="M208,369.9c-16.6-0.3-29.3-4.8-38.1-17.4c-1-1.5-1.9-3.1-2.7-4.8c-1.2-2.6-2.4-5.8-0.5-8
			c1.6-1.9,4.3,0.5,6.4,1.1c22.3,6.9,44.6,6.7,66.8-0.3c1.8-0.6,4-2.5,5.5-0.7c1.5,1.8,0.8,4.5-0.2,6.7
			c-5.3,12.3-14.9,19.3-27.7,22.2C213.8,369.4,210,370.1,208,369.9z"/>
		<path class="st1" d="M94,218.2c0,6-0.1,12,0,18c0.1,3.2-0.9,4-3.7,2.4c-8-4.8-12.5-11.8-12.3-21.4c0.2-9.2,4.7-15.7,12.5-20.2
			c2.7-1.6,3.5-0.5,3.5,2.3C93.9,205.5,94,211.8,94,218.2C94,218.2,94,218.2,94,218.2z"/>
		<path class="st1" d="M318,217.5c0-6,0.1-12,0-18c0-2.8,0.6-4.3,3.6-2.5c7.9,4.7,12.4,11.6,12.3,20.8c0,9.3-4.5,16.1-12.4,20.8
			c-2.5,1.5-3.6,0.8-3.5-2.2C318,230.1,318,223.8,318,217.5C318,217.5,318,217.5,318,217.5z"/>
		<path class="st1" d="M273.7,345.7c-6.3-0.1-11.6-3.7-11.6-8c0-4.2,5.3-7.9,11.6-8c6.3-0.1,12.2,3.7,12.2,8
			C285.9,342,280.1,345.8,273.7,345.7z"/>
		<path class="st0" d="M206.6,297.7c-33.8,0-61.9-25.9-64.6-58.5c-0.3-3.9,0.5-5.7,5-5.6c10,0.2,10,0,12,10.1
			c4.5,22.6,25.1,38.6,49.1,38c21.8-0.5,41.6-18,45-39.8c1.3-8.2,1.3-8.2,8.6-8.2c8.7,0,8.7,0,7.5,8.7c-3.8,26.8-22.9,47.6-49,53.7
			C215.4,297.2,210.7,298,206.6,297.7z"/>
		<path class="st4" d="M246,189.7c0-6.3,5.5-11.8,11.8-11.9c6.5-0.1,12.2,5.6,12.1,12.1c-0.1,6.3-5.6,11.8-11.8,11.9
			C251.6,201.8,246,196.2,246,189.7z"/>
		<path class="st0" d="M210.5,432.5c-0.6,0.1-0.8,0.2-0.9,0.1c-4-2.8-3.3-7.7-5.2-11.4c-1-2.1,0.1-3.4,2.1-4.3
			c12.4-5.7,22.6-14,30.8-24.9c1.5-2,2.8-2.4,4.9-0.8c11.6,8.4,12.8,4.8,2.3,17.2c-8,9.5-18.2,16.6-29.4,22.1
			C213.6,431.4,211.8,432,210.5,432.5z"/>
	</g>
</g>
</svg>
