<?xml version="1.0" encoding="utf-8"?>
<!-- Generator: Adobe Illustrator 22.0.1, SVG Export Plug-In . SVG Version: 6.00 Build 0)  -->
<svg version="1.1" id="Layer_1" xmlns="http://www.w3.org/2000/svg" xmlns:xlink="http://www.w3.org/1999/xlink" x="0px" y="0px"
	 viewBox="0 0 60 60" style="enable-background:new 0 0 60 60;" xml:space="preserve">
<g>
	<path d="M41,42.9l-9.6-4.8c-0.9-0.5-1.5-1.4-1.5-2.4v-3.4c0.2-0.3,0.5-0.6,0.7-1c1.2-1.8,2.2-3.7,3-5.8c1.4-0.6,2.3-2,2.3-3.6v-4
		c0-1-0.4-1.9-1-2.6v-5.3c0.1-0.5,0.3-3.8-2.1-6.5C30.9,1.2,27.5,0,23,0s-7.9,1.2-9.9,3.5c-2.4,2.7-2.1,6-2.1,6.5v5.3
		c-0.6,0.7-1,1.7-1,2.6v4c0,1.2,0.6,2.4,1.5,3.1c0.9,3.6,2.8,6.4,3.5,7.2v3.3c0,1-0.5,1.9-1.4,2.3l-8.9,4.9C1.8,44.4,0,47.5,0,50.8
		V54c0,4.7,15,6,23,6s23-1.3,23-6v-3C46,47.5,44.1,44.4,41,42.9z"/>
	<path d="M57.9,15.9h-4.8v-4.8c0-1.2-1-2.1-2.1-2.1s-2.1,1-2.1,2.1v4.8h-4.8c-1.2,0-2.1,1-2.1,2.1s1,2.1,2.1,2.1h4.8v4.8
		c0,1.2,1,2.1,2.1,2.1s2.1-1,2.1-2.1v-4.8h4.8c1.2,0,2.1-1,2.1-2.1S59,15.9,57.9,15.9z"/>
</g>
</svg>
