<?xml version="1.0" encoding="utf-8"?>
<!-- Generator: Adobe Illustrator 22.0.1, SVG Export Plug-In . SVG Version: 6.00 Build 0)  -->
<svg version="1.1" id="Layer_1" xmlns="http://www.w3.org/2000/svg" xmlns:xlink="http://www.w3.org/1999/xlink" x="0px"
	 y="0px" viewBox="0 0 128 128" style="enable-background:new 0 0 128 128;" xml:space="preserve">
<path d="M87.3,66.1L35.6,14.3C39.3,7.6,47.3,0,64,0c17.5,0,25.4,8.3,29,15.3c3.9,7.8,3.9,16.5,3.9,23.5
	C96.9,47.4,93.4,57.1,87.3,66.1z"/>
<path d="M31.3,31.3l93.6,93.6c-2,2-4.7,3.1-7.5,3.1H10.7c-2.8,0-5.6-1.2-7.6-3.2c-2-2-3.1-4.8-3.1-7.7c0-2.7,0.7-16.8,9-25.2
	c3.8-3.8,10.1-7.1,20.1-12.1c5-2.5,13.4-6.7,15.4-8.6C36,60.9,31.1,49.1,31.1,38.8C31.1,36.5,31.1,33.9,31.3,31.3z"/>
<polygon points="128,128 106.8,128 0.3,21.5 10.9,10.9 "/>
</svg>
